# AST/ASF file generated using VICON BodyLanguage
# -----------------------------------------------
:version 1.10
:name VICON
:units
  mass 1.0
  length 0.45
  angle deg
:documentation
   .ast/.asf automatically generated from VICON data using
   VICON BodyBuilder and BodyLanguage model FoxedUp or BRILLIANT.MOD
:root
   order TX TY TZ RX RY RZ
   axis XYZ
   position 0 0 0  
   orientation 0 0 0 
:bonedata
  begin
     id 1 
     name lhipjoint
     direction 0.78388 -0.462562 0.414208 
     length 3.01181 
     axis 0 0 0  XYZ
  end
  begin
     id 2 
     name lfemur
     direction 0.34202 -0.939693 0  
     length 6.04673  
     axis 0 0 20  XYZ
    dof rx ry rz
    limits (-160.0 20.0)
           (-70.0 70.0)
           (-60.0 70.0)
  end
  begin
     id 3 
     name ltibia
     direction 0.34202 -0.939693 0   
     length 7.211   
     axis 0 0 20   XYZ
    dof rx
    limits (-10.0 170.0)
  end
  begin
     id 4 
     name lfoot
     direction 0.121887 -0.334882 0.934344   
     length 2.13567   
     axis -90 7.62852e-016 20   XYZ
    dof rx rz
    limits (-45.0 90.0)
           (-70.0 20.0)
  end
  begin
     id 5 
     name ltoes
     direction 1.53555e-011 -4.2179e-011 1   
     length 1.05957   
     axis -90 7.62852e-016 20   XYZ
    dof rx
    limits (-90.0 20.0)
  end
  begin
     id 6 
     name rhipjoint
     direction -0.769387 -0.475875 0.426129   
     length 2.92756  
     axis 0 0 0  XYZ 
  end
  begin
     id 7 
     name rfemur
     direction -0.34202 -0.939693 0   
     length 6.35468   
     axis 0 0 -20   XYZ
    dof rx ry rz
    limits (-160.0 20.0)
           (-70.0 70.0)
           (-70.0 60.0)
  end
  begin
     id 8 
     name rtibia
     direction -0.34202 -0.939693 0   
     length 7.37886   
     axis 0 0 -20   XYZ
    dof rx
    limits (-10.0 170.0)
 end
 begin
     id 9 
     name rfoot
     direction -0.101763 -0.279592 0.954711   
     length 2.21478  
     axis -90 -7.62852e-016 -20   XYZ
    dof rx rz
    limits (-45.0 90.0)
           (-20.0 70.0)
  end
  begin
     id 10 
     name rtoes
     direction -1.53494e-011 -4.21851e-011 1   
     length 1.10506   
     axis -90 -7.62852e-016 -20   XYZ
    dof rx
    limits (-90.0 20.0)
  end
  begin
     id 11 
     name lowerback
     direction 0.00747405 0.999267 0.0375481   
     length 2.13259   
     axis 0 0 0   XYZ
    dof rx ry rz
    limits (-20.0 45.0)
           (-30.0 30.0)
           (-30.0 30.0)
  end
  begin
     id 12 
     name upperback
     direction 0.00661626 0.996177 0.0871029   
     length 2.10528   
     axis 0 0 0   XYZ
    dof rx ry rz
    limits (-20.0 45.0)
           (-30.0 30.0)
           (-30.0 30.0)
  end
  begin
     id 13 
     name thorax
     direction 0.00320659 0.997679 0.0680167   
     length 2.11338   
     axis 0 0 0   XYZ
    dof rx ry rz
    limits (-20.0 45.0)
           (-30.0 30.0)
           (-30.0 30.0)
  end
  begin
     id 14 
     name lowerneck
     direction 0.0374841 0.973033 0.227602   
     length 1.42765   
     axis 0 0 0   XYZ
    dof rx ry rz
    limits (-20.0 45.0)
           (-30.0 30.0)
           (-30.0 30.0)
  end
  begin
     id 15 
     name upperneck
     direction 0.00481585 0.989155 -0.146795   
     length 1.47593   
     axis 0 0 0   XYZ
    dof rx ry rz
    limits (-20.0 45.0)
           (-30.0 30.0)
           (-30.0 30.0)
  end
  begin
     id 16
     name head
     direction -0.00292522 0.997206 -0.0746423  
     length 1.48116  
     axis 0 0 0   XYZ
    dof rx ry rz
    limits (-20.0 45.0)
           (-30.0 30.0)
           (-30.0 30.0)
  end
  begin
     id 17 
     name lclavicle
     direction 0.951444 0.305606 0.0368784  
     length 3.01855  
     axis 0 0 0   XYZ
    dof ry rz
    limits (-20.0 10.0)
           (0.0 20.0)
  end
  begin
     id 18 
     name lhumerus
     direction 1 -4.48977e-011 2.61664e-027   
     length 5.52731   
     axis 180 -30 -90   XYZ
    dof rx ry rz
    limits (-60.0 90.0)
           (-90.0 90.0)
           (-90.0 90.0)
  end
  begin
     id 19
     name lradius
     direction 1 -4.48944e-011 8.22157e-027   
     length 3.11059   
     axis 180 -30 -90   XYZ
    dof rx
    limits (-10.0 170.0)
  end
  begin
     id 20
     name lwrist
     direction 1 -4.48976e-011 1.5779e-026   
     length 1.5553   
     axis -1.15221e-014 90 90   XYZ
    dof ry
    limits (-180.0 0.0)
 end
  begin
     id 21 
     name lhand
     direction 1 -4.49025e-011 3.1558e-026   
     length 0.419626   
     axis -2.01367e-014 90 90   XYZ
    dof rx rz
    limits (-90.0 90.0)
           (-45.0 45.0)
  end
  begin
     id 22 
     name lfingers
     direction 1 -4.4904e-011 6.31161e-026   
     length 0.338313   
     axis -4.02734e-014 90 90   XYZ
    dof rx
    limits (0.0 90.0)
  end
  begin
     id 23
     name lthumb
     direction 0.707107 -6.35004e-011 0.707107   
     length 0.485752   
     axis -90 45 2.85299e-015   XYZ
    dof rx rz
    limits (-45.0 45.0)
           (-45.0 45.0)
  end
  begin
     id 24 
     name rclavicle
     direction -0.968876 0.223791 0.105816   
     length 3.04177  
     axis 0 0 0   XYZ 
    dof ry rz
    limits (-10.0 20.0)
           (-20.0 0.0)
  end
  begin
     id 25 
     name rhumerus
     direction -1 -4.48962e-011 -1.01384e-027  
     length 5.25396   
     axis 180 30 90   XYZ
    dof rx ry rz
    limits (-90.0 60.0)
           (-90.0 90.0)
           (-90.0 90.0)
  end
  begin
     id 26 
     name rradius
     direction -1 -4.48955e-011 8.88542e-027   
     length 3.10567   
     axis 180 30 90   XYZ
    dof rx
    limits (-10.0 170.0)
  end
  begin
     id 27 
     name rwrist
     direction -1 -4.48994e-011 1.5779e-026   
     length 1.55283   
     axis -1.15221e-014 -90 -90   XYZ
    dof ry
    limits (-180.0 0.0)
  end
  begin
     id 28
     name rhand
     direction -1 -4.48891e-011 3.1558e-026   
     length 0.498676   
     axis -2.01367e-014 -90 -90   XYZ
    dof rx rz
    limits (-90.0 90.0)
           (-45.0 45.0)
  end
  begin
     id 29
     name rfingers
     direction -1 -4.48972e-011 6.31161e-026   
     length 0.402045   
     axis -4.02734e-014 -90 -90   XYZ
    dof rx
    limits (0.0 90.0)
  end
  begin
     id 30
     name rthumb
     direction -0.707107 -6.34849e-011 0.707107   
     length 0.577259   
     axis -90 -45 -2.85299e-015   XYZ
    dof rx rz
    limits (-45.0 45.0)
           (-45.0 45.0)
  end
:hierarchy
  begin
    root lhipjoint rhipjoint lowerback
    lhipjoint lfemur
    lfemur ltibia
    ltibia lfoot
    lfoot ltoes
    rhipjoint rfemur
    rfemur rtibia
    rtibia rfoot
    rfoot rtoes
    lowerback upperback
    upperback thorax
    thorax lowerneck lclavicle rclavicle
    lowerneck upperneck
    upperneck head
    lclavicle lhumerus
    lhumerus lradius
    lradius lwrist
    lwrist lhand lthumb
    lhand lfingers
    rclavicle rhumerus
    rhumerus rradius
    rradius rwrist
    rwrist rhand rthumb
    rhand rfingers
  end

#!OML:ASF H:\Pregnant\Project 1\Capture day 1\Session 1\femalepreg.ASF
:FULLY-SPECIFIED
:DEGREES
16
root 5.90295 14.0328 -1.23774 35.2241 -4.44478 -1.17261
lowerback -3.08233 -0.779365 0.850809
upperback -9.43706 -0.969717 1.49431
thorax -8.14705 -0.493345 1.13864
lowerneck -27.0511 -6.23542 -0.694394
upperneck 11.4752 -9.05834 5.01538
head 8.15929 -3.76725 0.504147
rclavicle 3.08116e-015 1.17283e-014
rhumerus 0.590069 7.12542 -84.1354
rradius 107.7
rwrist 14.4931
rhand 1.71332 -12.4857
rfingers 7.12502
rthumb 27.2304 -40.5401
lclavicle 3.08116e-015 1.17283e-014
lhumerus -0.726907 2.71438 78.5426
lradius 111.42
lwrist 14.8925
lhand 17.2101 18.1546
lfingers 7.12502
lthumb 41.9277 42.7688
rfemur -78.6146 3.61568 22.0291
rtibia 74.777
rfoot -25.6746 -13.8348
rtoes -11.2431
lfemur -79.4097 -1.35723 -21.6611
ltibia 70.5588
lfoot -23.0984 8.46203
ltoes -13.4226
17
root 5.90214 14.0328 -1.23804 35.2505 -4.44812 -1.1833
lowerback -3.07998 -0.809686 0.81129
upperback -9.43447 -1.01014 1.51986
thorax -8.1439 -0.509544 1.18923
lowerneck -26.9322 -6.54092 -0.956806
upperneck 11.4024 -9.42554 5.29811
head 8.15471 -3.92628 0.587278
rclavicle -3.50358e-015 2.73329e-014
rhumerus 0.422306 7.36068 -84.1846
rradius 107.388
rwrist 14.3008
rhand 1.57445 -12.349
rfingers 7.12502
rthumb 27.0975 -40.4243
lclavicle -3.50358e-015 2.73329e-014
lhumerus -0.85455 2.61672 78.5726
lradius 111.267
lwrist 14.7805
lhand 17.307 18.2179
lfingers 7.12502
lthumb 42.0186 42.8017
rfemur -78.6444 3.63729 22.0316
rtibia 74.7702
rfoot -25.6575 -13.8378
rtoes -11.2397
lfemur -79.4448 -1.33815 -21.655
ltibia 70.5666
lfoot -23.0987 8.45991
ltoes -13.4355
18
root 5.90139 14.0327 -1.23809 35.2732 -4.45325 -1.19866
lowerback -3.07457 -0.838138 0.773907
upperback -9.43302 -1.04784 1.54678
thorax -8.14376 -0.524476 1.24005
lowerneck -26.7952 -6.82441 -1.19855
upperneck 11.3275 -9.76729 5.56103
head 8.14563 -4.0752 0.664562
rclavicle -1.4064e-014 8.05078e-015
rhumerus 0.254343 7.57532 -84.2334
rradius 107.109
rwrist 14.1475
rhand 1.7566 -12.3091
rfingers 7.12502
rthumb 27.2718 -40.357
lclavicle -1.4064e-014 8.05078e-015
lhumerus -0.980455 2.52841 78.6027
lradius 111.112
lwrist 14.6471
lhand 17.4376 18.3075
lfingers 7.12502
lthumb 42.141 42.8501
rfemur -78.6672 3.65919 22.0416
rtibia 74.7623
rfoot -25.64 -13.841
rtoes -11.2473
lfemur -79.4762 -1.31525 -21.6462
ltibia 70.5769
lfoot -23.0996 8.45983
ltoes -13.4559
19
root 5.9009 14.0325 -1.23781 35.2919 -4.45968 -1.22012
lowerback -3.06615 -0.864648 0.744675
upperback -9.43071 -1.08274 1.57332
thorax -8.14457 -0.538636 1.28586
lowerneck -26.6472 -7.08517 -1.4087
upperneck 11.25 -10.085 5.79718
head 8.1317 -4.21486 0.731783
rclavicle 2.11209e-015 4.37326e-015
rhumerus 0.0882976 7.76921 -84.285
rradius 106.863
rwrist 14.065
rhand 2.22495 -12.3261
rfingers 7.12502
rthumb 27.7197 -40.3029
lclavicle 2.11209e-015 4.37326e-015
lhumerus -1.09561 2.45125 78.6287
lradius 110.956
lwrist 14.4968
lhand 17.5987 18.4141
lfingers 7.12502
lthumb 42.2918 42.9056
rfemur -78.6821 3.68065 22.0585
rtibia 74.7516
rfoot -25.6249 -13.8385
rtoes -11.2523
lfemur -79.5024 -1.28942 -21.6339
ltibia 70.5895
lfoot -23.1015 8.46481
ltoes -13.4956
20
root 5.9007 14.0327 -1.23707 35.3009 -4.46919 -1.24395
lowerback -3.05562 -0.889255 0.722087
upperback -9.42042 -1.11516 1.5973
thorax -8.13796 -0.552179 1.32503
lowerneck -26.4998 -7.32486 -1.58811
upperneck 11.1678 -10.381 6.01058
head 8.1139 -4.34574 0.789936
rclavicle 1.3418e-015 -3.97569e-016
rhumerus -0.0671387 7.94137 -84.3378
rradius 106.644
rwrist 14.0745
rhand 2.91424 -12.3614
rfingers 7.12502
rthumb 28.3786 -40.2303
lclavicle 1.3418e-015 -3.97569e-016
lhumerus -1.19002 2.38713 78.6497
lradius 110.799
lwrist 14.3363
lhand 17.7715 18.5282
lfingers 7.12502
lthumb 42.4537 42.9643
rfemur -78.6822 3.69981 22.0783
rtibia 74.7375
rfoot -25.6114 -13.8313
rtoes -11.2622
lfemur -79.514 -1.26315 -21.6204
ltibia 70.6017
lfoot -23.1085 8.47241
ltoes -13.5265
21
root 5.90065 14.0326 -1.23625 35.311 -4.48315 -1.26606
lowerback -3.04621 -0.911888 0.702287
upperback -9.41196 -1.14521 1.6157
thorax -8.13285 -0.564999 1.35671
lowerneck -26.339 -7.54564 -1.73456
upperneck 11.0785 -10.6582 6.1986
head 8.08864 -4.46986 0.837888
rclavicle -3.02401e-014 2.47487e-014
rhumerus -0.226165 8.09241 -84.3949
rradius 106.452
rwrist 14.1832
rhand 3.75206 -12.3907
rfingers 7.12502
rthumb 29.179 -40.1236
lclavicle -3.02401e-014 2.47487e-014
lhumerus -1.27898 2.33103 78.6636
lradius 110.647
lwrist 14.1664
lhand 17.9391 18.6216
lfingers 7.12502
lthumb 42.6106 43.0037
rfemur -78.6852 3.71677 22.0966
rtibia 74.724
rfoot -25.5975 -13.8205
rtoes -11.277
lfemur -79.5267 -1.23565 -21.6111
ltibia 70.615
lfoot -23.116 8.48067
ltoes -13.5558
22
root 5.90069 14.0326 -1.23532 35.3209 -4.50266 -1.28451
lowerback -3.04205 -0.932199 0.68199
upperback -9.3992 -1.1726 1.62858
thorax -8.12003 -0.576727 1.3825
lowerneck -26.1849 -7.74882 -1.86049
upperneck 10.9892 -10.9168 6.37439
head 8.0628 -4.58565 0.881275
rclavicle -7.37988e-015 9.0447e-015
rhumerus -0.378368 8.22382 -84.4526
rradius 106.282
rwrist 14.3765
rhand 4.66198 -12.4063
rfingers 7.12502
rthumb 30.0475 -39.985
lclavicle -7.37988e-015 9.0447e-015
lhumerus -1.34907 2.28349 78.6714
lradius 110.5
lwrist 13.9935
lhand 18.0868 18.6836
lfingers 7.12502
lthumb 42.7488 43.0177
rfemur -78.6905 3.73329 22.1095
rtibia 74.7129
rfoot -25.5845 -13.8063
rtoes -11.2896
lfemur -79.5376 -1.20737 -21.6083
ltibia 70.6275
lfoot -23.1236 8.49139
ltoes -13.5921
23
root 5.90067 14.0324 -1.23435 35.3305 -4.52641 -1.29762
lowerback -3.03504 -0.951635 0.660102
upperback -9.3895 -1.19912 1.63581
thorax -8.11231 -0.588136 1.40334
lowerneck -26.0188 -7.93668 -1.96836
upperneck 10.8954 -11.159 6.5399
head 8.03199 -4.69475 0.921406
rclavicle 2.75317e-014 -4.08502e-014
rhumerus -0.540644 8.34158 -84.5161
rradius 106.136
rwrist 14.6312
rhand 5.54323 -12.4072
rfingers 7.12502
rthumb 30.888 -39.8299
lclavicle 2.75317e-014 -4.08502e-014
lhumerus -1.42127 2.24261 78.6715
lradius 110.365
lwrist 13.8187
lhand 18.1863 18.6981
lfingers 7.12502
lthumb 42.8419 42.9996
rfemur -78.6984 3.74849 22.1167
rtibia 74.7051
rfoot -25.5721 -13.7923
rtoes -11.3101
lfemur -79.5472 -1.17943 -21.6112
ltibia 70.6401
lfoot -23.1332 8.49918
ltoes -13.6065
24
root 5.90059 14.0321 -1.23339 35.3381 -4.55679 -1.30131
lowerback -3.02953 -0.969922 0.628791
upperback -9.37702 -1.2246 1.63835
thorax -8.10052 -0.59854 1.42436
lowerneck -25.8662 -8.10893 -2.06787
upperneck 10.8091 -11.3821 6.69714
head 8.00472 -4.79494 0.959913
rclavicle -9.88954e-015 6.85807e-015
rhumerus -0.698228 8.44986 -84.5764
rradius 106.012
rwrist 14.9141
rhand 6.35103 -12.4275
rfingers 7.12502
rthumb 31.6577 -39.7015
lclavicle -9.88954e-015 6.85807e-015
lhumerus -1.48673 2.21187 78.6688
lradius 110.244
lwrist 13.6557
lhand 18.2394 18.6655
lfingers 7.12502
lthumb 42.8916 42.9496
rfemur -78.709 3.76115 22.1131
rtibia 74.7027
rfoot -25.5614 -13.7756
rtoes -11.3329
lfemur -79.5514 -1.15337 -21.6245
ltibia 70.651
lfoot -23.1453 8.50632
ltoes -13.6134
